<?xml version="1.0" standalone="no"?>
<!DOCTYPE svg PUBLIC "-//W3C//DTD SVG 20010904//EN"
 "http://www.w3.org/TR/2001/REC-SVG-20010904/DTD/svg10.dtd">
<svg version="1.0" xmlns="http://www.w3.org/2000/svg"
 width="729.000000pt" height="458.000000pt" viewBox="0 0 729.000000 458.000000"
 preserveAspectRatio="xMidYMid meet">

<g transform="translate(0.000000,458.000000) scale(0.100000,-0.100000)"
fill="#000000" stroke="none">
<path d="M1512 3945 l172 -215 509 -2 510 -3 -199 -161 c-305 -248 -349 -284
-352 -293 -4 -13 1279 -1284 1288 -1274 5 4 72 78 148 163 l140 155 -67 70
c-36 39 -249 257 -474 485 l-407 415 53 50 c84 79 151 142 502 464 182 167
343 317 360 332 l30 29 -1193 0 -1192 0 172 -215z"/>
<path d="M3515 3709 l-450 -450 410 -404 c226 -223 413 -404 418 -405 7 0 189
185 797 805 135 137 360 367 501 510 141 143 284 289 318 325 l63 65 -284 3
-284 2 -195 -197 c-107 -109 -305 -310 -439 -448 -363 -370 -369 -376 -406
-391 -152 -64 -306 108 -229 256 12 23 79 96 314 345 63 67 299 319 351 375 8
9 24 26 34 38 l19 22 -244 0 -244 0 -450 -451z"/>
<path d="M1375 1331 c-112 -52 -147 -182 -91 -336 l25 -70 -32 -25 c-128 -98
-170 -225 -113 -346 72 -154 320 -192 489 -76 l38 27 87 -42 c120 -58 130 -60
141 -30 5 14 12 40 16 58 l6 34 -81 37 -82 37 30 43 c38 55 78 136 108 215
l24 63 -69 0 -68 0 -13 -42 c-15 -53 -61 -144 -88 -178 l-20 -24 -35 27 c-34
26 -132 131 -162 174 -13 18 -8 24 55 76 108 88 147 175 120 271 -14 51 -50
93 -96 112 -47 20 -141 17 -189 -5z m158 -98 c23 -27 30 -68 17 -107 -11 -33
-76 -102 -118 -125 -18 -10 -22 -7 -36 32 -30 82 -25 149 13 188 35 35 97 41
124 12z m-115 -465 c23 -29 70 -82 106 -118 37 -35 66 -67 66 -70 0 -4 -18
-16 -39 -28 -142 -80 -308 16 -269 155 9 33 72 113 88 113 4 0 26 -24 48 -52z"/>
<path d="M330 1175 l0 -75 256 -2 257 -3 -180 -185 c-98 -102 -213 -221 -256
-265 l-77 -80 0 -67 0 -68 360 0 360 0 0 70 0 70 -245 0 c-135 0 -245 3 -245
8 1 9 63 76 303 326 l187 194 0 76 0 76 -360 0 -360 0 0 -75z"/>
<path d="M2260 1236 c-104 -28 -157 -71 -204 -164 -62 -122 -62 -352 1 -477
32 -65 66 -101 128 -133 49 -27 54 -27 273 -30 l222 -3 0 70 0 71 -140 0 c-76
0 -163 5 -192 11 -102 22 -142 99 -143 269 0 122 19 176 77 216 41 29 42 29
220 32 l178 3 0 75 0 74 -187 -1 c-117 0 -205 -5 -233 -13z"/>
<path d="M3090 820 l0 -400 80 0 80 0 0 292 c0 161 4 288 9 283 4 -6 49 -137
100 -292 l92 -283 88 0 89 0 15 42 c109 320 182 525 188 533 5 5 9 -121 9
-283 l0 -292 80 0 80 0 0 400 0 401 -127 -3 -126 -3 -101 -302 c-55 -167 -103
-303 -106 -303 -3 0 -49 136 -101 303 l-96 302 -127 3 -126 3 0 -401z"/>
<path d="M4336 1204 c-61 -19 -138 -94 -172 -167 -82 -179 -44 -437 79 -543
67 -57 109 -66 330 -71 l197 -5 0 70 0 69 -157 5 c-179 6 -224 18 -260 71 -12
17 -26 51 -31 75 l-10 42 229 0 229 0 0 70 0 70 -229 0 -228 0 8 49 c9 60 32
96 73 119 25 14 65 18 204 20 l172 4 0 69 0 69 -192 -1 c-141 0 -206 -4 -242
-15z"/>
<path d="M4820 1150 l0 -70 130 0 130 0 0 -330 0 -330 85 0 85 0 0 330 0 330
130 0 130 0 0 70 0 70 -345 0 -345 0 0 -70z"/>
<path d="M5692 827 c-89 -216 -162 -396 -162 -400 0 -4 44 -7 98 -7 l98 0 39
95 38 95 147 0 c106 0 150 -3 157 -12 5 -7 25 -50 43 -95 l34 -83 98 0 c96 0
99 1 93 21 -4 11 -64 158 -134 327 -70 169 -141 340 -157 379 l-29 73 -100 0
-100 0 -163 -393z m328 42 l48 -119 -113 0 -113 0 54 132 c30 73 54 135 54
138 1 12 25 -40 70 -151z"/>
<path d="M6462 918 c3 -285 5 -306 25 -348 28 -60 66 -98 122 -123 39 -18 72
-21 224 -25 l177 -4 0 69 0 70 -137 5 c-150 6 -202 20 -225 60 -10 17 -14 95
-16 311 l-4 287 -85 0 -85 0 4 -302z"/>
</g>
</svg>
