<?xml version="1.0" standalone="no"?>
<!DOCTYPE svg PUBLIC "-//W3C//DTD SVG 20010904//EN"
 "http://www.w3.org/TR/2001/REC-SVG-20010904/DTD/svg10.dtd">
<svg version="1.0" xmlns="http://www.w3.org/2000/svg"
 width="450.000000pt" height="235.000000pt" viewBox="0 0 450.000000 235.000000"
 preserveAspectRatio="xMidYMid meet">

<g transform="translate(0.000000,235.000000) scale(0.100000,-0.100000)"
fill="#000000" stroke="none">
<path d="M312 2055 l172 -215 510 0 511 -1 -26 -22 c-14 -12 -84 -69 -155
-127 -196 -158 -347 -282 -364 -297 -13 -11 48 -76 435 -464 248 -248 538
-536 646 -640 l197 -189 108 122 c60 68 126 142 147 165 l38 41 -333 339
c-183 186 -397 404 -476 484 l-143 146 113 104 c175 160 769 708 803 740 l30
29 -1193 0 -1192 0 172 -215z"/>
<path d="M2315 1819 l-450 -450 410 -404 c226 -223 413 -405 418 -405 7 0 202
197 797 805 135 137 360 367 501 510 140 143 283 289 317 325 l62 65 -283 3
-282 3 -259 -263 c-765 -777 -754 -767 -793 -777 -53 -15 -82 -13 -128 8 -99
44 -139 157 -90 251 7 14 68 84 136 155 188 199 336 358 529 565 8 9 24 26 34
38 l19 22 -244 0 -244 0 -450 -451z"/>
</g>
</svg>
